<svg xmlns="http://www.w3.org/2000/svg" viewBox="0 0 22 20" width="22" height="20">
	<style>
		tspan { white-space:pre }
		.shp0 { fill: #ffbc00 } 
	</style>
	<g id="homepage">
		<g id="footer">
			<g id="kontakt">
				<path id="ic_mail" class="shp0" d="M11 20C10.08 20 9.19 19.88 8.34 19.64C7.49 19.4 6.69 19.06 5.95 18.63C5.21 18.2 4.54 17.68 3.93 17.07C3.32 16.46 2.8 15.79 2.37 15.05C1.94 14.31 1.6 13.51 1.36 12.66C1.12 11.81 1 10.92 1 10C1 9.08 1.12 8.19 1.36 7.34C1.6 6.49 1.94 5.69 2.37 4.95C2.8 4.21 3.32 3.54 3.93 2.93C4.54 2.32 5.21 1.8 5.95 1.37C6.69 0.94 7.49 0.6 8.34 0.36C9.19 0.12 10.08 0 11 0C12.37 0 13.67 0.26 14.89 0.79C16.11 1.32 17.17 2.03 18.07 2.93C18.97 3.83 19.68 4.89 20.21 6.11C20.74 7.33 21 8.63 21 10C21 10.92 20.88 11.81 20.64 12.66C20.4 13.51 20.06 14.31 19.63 15.05C19.2 15.79 18.68 16.46 18.07 17.07C17.46 17.68 16.79 18.2 16.05 18.63C15.31 19.06 14.51 19.4 13.66 19.64C12.81 19.88 11.92 20 11 20ZM15.82 5.88L6.34 5.88C6.25 5.88 6.17 5.91 6.1 5.97C6.03 6.03 6 6.11 6 6.22L6 7.28C6 7.33 6.02 7.36 6.06 7.36L11.04 10.2L11.08 10.22C11.11 10.22 11.13 10.21 11.14 10.2L15.96 7.36C15.99 7.35 16.01 7.34 16.02 7.34C16.03 7.34 16.05 7.33 16.08 7.32C16.13 7.32 16.16 7.29 16.16 7.24L16.16 6.22C16.16 6.11 16.13 6.03 16.06 5.97C15.99 5.91 15.91 5.88 15.82 5.88ZM9.02 10.14C9.03 10.13 9.04 10.11 9.04 10.08C9.04 10.04 9.03 10.02 9 10.02L6.14 8.38C6.1 8.37 6.07 8.37 6.04 8.38C6.01 8.38 6 8.4 6 8.44L6 12.74C6 12.78 6.02 12.81 6.06 12.82L6.1 12.82C6.13 12.82 6.14 12.81 6.14 12.8L9.02 10.14ZM12.5 10.46C12.49 10.42 12.45 10.41 12.4 10.44L11.3 11.08C11.17 11.16 11.03 11.16 10.88 11.08L9.92 10.54C9.88 10.51 9.85 10.51 9.82 10.54L6.16 13.94C6.15 13.95 6.14 13.98 6.14 14.02C6.14 14.03 6.15 14.05 6.18 14.08C6.26 14.11 6.31 14.12 6.34 14.12L15.72 14.12C15.75 14.12 15.77 14.11 15.8 14.08C15.8 14.03 15.79 13.99 15.78 13.98L12.5 10.46ZM16.1 8.3L16.02 8.3L13.3 9.92C13.27 9.92 13.26 9.94 13.26 9.98C13.25 9.99 13.25 10.01 13.28 10.04L16 12.98C16.03 13.01 16.05 13.02 16.06 13.02L16.1 13.02C16.14 12.98 16.16 12.95 16.16 12.94L16.16 8.38C16.16 8.35 16.14 8.33 16.1 8.3Z" />
			</g>
		</g>
	</g>
</svg>