<svg xmlns="http://www.w3.org/2000/svg" viewBox="0 0 21 21" width="21" height="21">
	<style>
		tspan { white-space:pre }
		.shp0 { fill: #ffbc00 } 
	</style>
	<g id="homepage">
		<g id="footer">
			<g id="kontakt">
				<path id="ic_phone" class="shp0" d="M10 0C4.48 0 0 4.48 0 10C0 15.52 4.48 20 10 20C15.52 20 20 15.52 20 10C20 4.48 15.52 0 10 0ZM15.28 14.59L14.48 15.39C14.34 15.53 13.92 15.62 13.91 15.62C11.37 15.65 8.93 14.65 7.14 12.86C5.34 11.06 4.35 8.61 4.38 6.07C4.38 6.07 4.47 5.66 4.61 5.52L5.41 4.72C5.7 4.43 6.27 4.29 6.66 4.43L6.83 4.48C7.22 4.61 7.63 5.05 7.74 5.45L8.15 6.93C8.25 7.33 8.11 7.9 7.82 8.19L7.28 8.73C7.81 10.67 9.33 12.2 11.27 12.72L11.81 12.19C12.1 11.89 12.67 11.75 13.07 11.86L14.55 12.26C14.95 12.37 15.39 12.78 15.52 13.17L15.58 13.34C15.71 13.74 15.57 14.3 15.28 14.59Z" />
			</g>
		</g>
	</g>
</svg>