<svg xmlns="http://www.w3.org/2000/svg" viewBox="0 0 500 165" width="500" height="165">
	<style>
		tspan { white-space:pre }
		.shp0 { opacity: 0.102;fill: #0d0d0d } 
	</style>
	<g id="homepage">
		<g id="slider">
			<path id="logo" class="shp0" d="M288.04,83.04l-4.25,-1.62c1.42,0.54 2.8,1.13 4.25,1.62zM499.99,1.29l-151.51,52.16c-47.44,-2.36 -70.29,-4.41 -94.8,-52.45h-47.54h-108.5c-25.01,49.01 -48.21,50.16 -97.63,52.6c1.72,38.31 4.66,71.03 15.83,107.79c0.15,0.51 0.31,1.02 0.47,1.52l40.59,1.09c-8.41,-23.45 -14.09,-48.46 -16.67,-75.26c33.28,-5.38 61.54,-20.76 80.12,-49.62h85.81h24.84c11.64,18.08 27.09,30.87 45.19,39.22l-0.23,0.08l43.26,16.5l-45.89,38.37l-14.09,29.2l141.79,-68.27l-42.15,-16.88z" />
		</g>
	</g>
</svg>