<svg xmlns="http://www.w3.org/2000/svg" viewBox="0 0 61 61" width="61" height="61">
	<style>
		tspan { white-space:pre }
		.shp0 { fill: #000000 } 
	</style>
	<g id="homepage">
		<g id="piktogramy">
			<path id="ic:_precizni" class="shp0" d="M13.88 47.58C12.94 46.65 11.69 46.13 10.37 46.13C9.58 46.13 8.83 46.31 8.15 46.65C1.46 37.22 1.43 24.3 8.2 14.84C8.58 14.32 8.46 13.59 7.93 13.21C7.4 12.84 6.67 12.96 6.29 13.49C2.56 18.7 0.64 24.86 0.75 31.3C0.86 37.42 2.79 43.23 6.35 48.17C4.94 50.1 5.1 52.83 6.85 54.57C7.82 55.53 9.09 56.01 10.37 56.01C11.64 56.01 12.91 55.53 13.88 54.57C15.81 52.64 15.81 49.51 13.88 47.58ZM12.22 52.92C11.2 53.94 9.53 53.94 8.51 52.92C7.49 51.9 7.49 50.25 8.51 49.23C9.01 48.74 9.67 48.47 10.37 48.47C11.07 48.47 11.72 48.74 12.22 49.23C13.24 50.25 13.24 51.9 12.22 52.92ZM48.56 53.38C48.18 52.86 47.45 52.74 46.92 53.12C43.57 55.53 39.81 57.13 35.73 57.86C34.78 58.04 33.82 57.78 33.09 57.17C32.36 56.57 31.94 55.68 31.94 54.73L31.94 46.18L32.04 46.18C33.4 46.18 34.5 45.08 34.5 43.73L34.5 41.76C38.47 40.26 41.3 36.43 41.3 31.95L41.3 26.43C43.19 25.92 44.58 24.2 44.58 22.16C44.58 19.91 42.89 18.05 40.71 17.76L40.71 10.49C40.71 8.56 39.14 6.99 37.2 6.99C35.26 6.99 33.68 8.56 33.68 10.49L33.68 17.72L27.82 17.72L27.82 10.49C27.82 8.56 26.24 6.99 24.31 6.99C22.37 6.99 20.79 8.56 20.79 10.49L20.79 17.76C18.61 18.05 16.92 19.91 16.92 22.16C16.92 24.2 18.31 25.92 20.2 26.43L20.2 31.95C20.2 36.43 23.03 40.26 27 41.76L27 43.73C27 45.08 28.1 46.18 29.46 46.18L29.59 46.18L29.59 54.73C29.59 56.37 30.32 57.91 31.58 58.96C32.59 59.8 33.85 60.25 35.14 60.25C35.48 60.25 35.81 60.22 36.15 60.16C40.57 59.36 44.66 57.63 48.3 55.01C48.82 54.63 48.94 53.9 48.56 53.38ZM36.02 10.49C36.02 9.85 36.55 9.33 37.2 9.33C37.84 9.33 38.37 9.85 38.37 10.49L38.37 17.72L36.02 17.72L36.02 10.49ZM23.13 10.49C23.13 9.85 23.66 9.33 24.31 9.33C24.95 9.33 25.48 9.85 25.48 10.49L25.48 17.72L23.13 17.72L23.13 10.49ZM19.27 22.16C19.27 21 20.21 20.06 21.38 20.06L40.13 20.06C41.29 20.06 42.24 21 42.24 22.16C42.24 23.31 41.29 24.26 40.13 24.26L21.38 24.26C20.21 24.26 19.27 23.31 19.27 22.16ZM22.55 31.95L22.55 26.59L38.95 26.59L38.95 31.95C38.95 36.46 35.27 40.12 30.75 40.12C26.23 40.12 22.55 36.46 22.55 31.95ZM30.8 43.85C30.79 43.85 30.78 43.85 30.77 43.85C30.76 43.85 30.75 43.85 30.74 43.85L29.46 43.85C29.4 43.85 29.34 43.8 29.34 43.73L29.34 42.36C29.8 42.42 30.27 42.45 30.75 42.45C31.23 42.45 31.7 42.42 32.16 42.36L32.16 43.73C32.16 43.8 32.1 43.85 32.04 43.85L30.8 43.85ZM51.94 50.22C51.47 49.79 50.75 49.81 50.3 50.25C50.29 50.26 50.29 50.27 50.28 50.28C49.84 50.75 49.86 51.49 50.33 51.93C50.56 52.14 50.85 52.24 51.13 52.24C51.44 52.24 51.74 52.13 51.97 51.9C51.98 51.89 51.98 51.88 51.99 51.87C52.43 51.4 52.41 50.66 51.94 50.22ZM60.67 28.61C60.15 21.47 57.06 14.74 51.97 9.68C46.96 4.69 40.27 1.64 33.14 1.09C26.09 0.54 19.07 2.44 13.38 6.45C12.85 6.82 12.73 7.55 13.1 8.07C13.47 8.6 14.21 8.73 14.73 8.35C25.62 0.7 40.91 1.97 50.31 11.32C60.02 20.99 61.19 36 53.1 47.01C52.72 47.53 52.83 48.26 53.35 48.64C53.56 48.79 53.81 48.86 54.05 48.86C54.41 48.86 54.76 48.7 54.99 48.39C59.17 42.7 61.19 35.67 60.67 28.61ZM11.05 9.81C10.59 9.36 9.85 9.36 9.39 9.82L9.38 9.84C8.92 10.29 8.92 11.03 9.38 11.49C9.61 11.71 9.91 11.82 10.21 11.82C10.51 11.82 10.81 11.71 11.04 11.48L11.06 11.46C11.51 11 11.51 10.26 11.05 9.81ZM33.39 31.52C33.18 31.16 32.8 30.94 32.38 30.94L31.54 30.94L33.09 29C33.49 28.5 33.4 27.76 32.89 27.37C32.39 26.97 31.65 27.05 31.25 27.56L28.2 31.38C27.92 31.74 27.87 32.21 28.07 32.62C28.26 33.02 28.67 33.28 29.12 33.28L30.37 33.28L28.93 35.8C28.62 36.36 28.81 37.07 29.38 37.39C29.56 37.49 29.76 37.54 29.95 37.54C30.36 37.54 30.76 37.33 30.97 36.95L33.4 32.68C33.61 32.32 33.6 31.88 33.39 31.52Z" />
		</g>
	</g>
</svg>