<svg xmlns="http://www.w3.org/2000/svg" viewBox="0 0 43 61" width="43" height="61">
	<style>
		tspan { white-space:pre }
		.shp0 { fill: #000000 } 
	</style>
	<g id="homepage">
		<g id="piktogramy">
			<path id="ic_kvalita" class="shp0" d="M10.81 15.74C10.61 15.57 10.35 15.47 10.07 15.47C9.44 15.47 8.92 16 8.92 16.64C8.92 17.2 9.3 17.66 9.8 17.78C9.89 17.8 9.98 17.82 10.07 17.82C10.71 17.82 11.23 17.29 11.23 16.64C11.23 16.28 11.06 15.96 10.81 15.74ZM28.45 20.83C28.32 20.41 27.95 20.1 27.52 20.03L24.15 19.53L22.64 16.43C22.45 16.03 22.05 15.78 21.61 15.78C21.61 15.78 21.61 15.78 21.61 15.78C21.17 15.78 20.77 16.03 20.57 16.43L19.07 19.53L15.69 20.03C15.26 20.1 14.9 20.41 14.76 20.83C14.63 21.25 14.74 21.72 15.05 22.03L17.49 24.45L16.92 27.86C16.84 28.3 17.02 28.74 17.38 29.01C17.73 29.27 18.2 29.3 18.59 29.09L21.61 27.48L24.62 29.09C25.01 29.3 25.48 29.27 25.84 29.01C26.19 28.74 26.37 28.3 26.3 27.86L25.72 24.45L28.16 22.03C28.47 21.72 28.59 21.25 28.45 20.83ZM23.68 23.2C23.4 23.47 23.28 23.86 23.34 24.24L23.63 25.91L22.14 25.12C21.81 24.94 21.41 24.94 21.07 25.12L19.59 25.92L19.87 24.24C19.93 23.86 19.81 23.47 19.54 23.2L18.34 22.01L20 21.77C20.37 21.71 20.7 21.47 20.87 21.12L21.61 19.6L22.35 21.12C22.52 21.47 22.84 21.71 23.22 21.77L24.88 22.01L23.68 23.2ZM21.61 8.44C15.82 8.44 12.31 12.12 12.23 12.16C11.76 12.6 11.73 13.34 12.16 13.82C12.59 14.3 13.32 14.33 13.79 13.9C16.09 11.77 18.84 10.78 21.61 10.78C27.97 10.78 33.14 16.04 33.14 22.5C33.14 28.94 28 34.22 21.61 34.22C15.08 34.22 9.76 28.68 10.09 21.91C10.1 21.71 10.11 21.51 10.13 21.31C10.19 20.67 9.73 20.1 9.1 20.03C8.46 19.97 7.9 20.44 7.84 21.09C7.81 21.32 7.8 21.55 7.78 21.79C7.4 29.9 13.76 36.57 21.61 36.57C29.3 36.57 35.45 30.21 35.45 22.5C35.45 14.75 29.24 8.44 21.61 8.44ZM42.74 21.79L39.56 17.62L40.26 12.39C40.34 11.86 40.04 11.35 39.56 11.15L34.75 9.15L32.79 4.27C32.59 3.77 32.08 3.48 31.56 3.55L26.42 4.27L22.31 1.03C21.9 0.7 21.32 0.7 20.9 1.03L16.8 4.27L11.65 3.55C11.13 3.48 10.63 3.77 10.43 4.27L8.47 9.15L3.66 11.15C3.17 11.35 2.88 11.86 2.95 12.39L3.66 17.62L0.47 21.79C0.15 22.21 0.15 22.8 0.47 23.22L3.66 27.39L2.95 32.62C2.88 33.15 3.17 33.66 3.66 33.86L8.47 35.86L10.43 40.74C10.63 41.24 11.13 41.53 11.65 41.46L13.53 41.2L13.53 59.62C13.53 60.09 13.81 60.52 14.25 60.7C14.68 60.88 15.17 60.78 15.5 60.45L21.61 54.24L27.71 60.45C28.04 60.78 28.54 60.88 28.97 60.7C29.4 60.52 29.68 60.09 29.68 59.62L29.68 41.2L31.56 41.46C32.08 41.53 32.59 41.24 32.79 40.74L34.75 35.86L39.56 33.86C40.04 33.66 40.34 33.15 40.26 32.62L39.56 27.39L42.74 23.22C43.06 22.8 43.06 22.21 42.74 21.79ZM27.37 56.79L27.37 56.79L22.42 51.76C21.97 51.3 21.24 51.3 20.79 51.76L15.84 56.79L15.84 40.87L16.8 40.74L20.9 43.97C21.11 44.14 21.36 44.22 21.61 44.22C21.86 44.22 22.11 44.14 22.31 43.97L26.42 40.74L27.37 40.87L27.37 56.79L27.37 56.79ZM37.44 26.34C37.25 26.59 37.17 26.91 37.21 27.22L37.86 32.04L33.43 33.87C33.14 33.99 32.91 34.22 32.8 34.51L30.99 39.01L28.98 38.73C28.8 38.65 28.6 38.62 28.38 38.65L26.25 38.35C25.94 38.31 25.63 38.39 25.39 38.59L21.61 41.57L17.83 38.59C17.58 38.4 17.27 38.31 16.96 38.35L12.23 39.01L10.42 34.51C10.3 34.22 10.07 33.99 9.79 33.87L5.36 32.03L6.01 27.22C6.05 26.91 5.97 26.59 5.78 26.34L2.85 22.5L5.78 18.66C5.97 18.42 6.05 18.1 6.01 17.79L5.36 12.97L9.79 11.14C10.07 11.02 10.3 10.79 10.42 10.49L12.23 6L16.96 6.66C17.27 6.7 17.58 6.61 17.83 6.42L21.61 3.44L25.39 6.42C25.63 6.61 25.94 6.7 26.25 6.66L30.99 6L32.8 10.49C32.91 10.79 33.14 11.02 33.43 11.14L37.86 12.97L37.21 17.79C37.17 18.1 37.25 18.42 37.44 18.66L40.37 22.5L37.44 26.34Z" />
		</g>
	</g>
</svg>