<svg xmlns="http://www.w3.org/2000/svg" viewBox="0 0 50 61" width="50" height="61">
	<style>
		tspan { white-space:pre }
		.shp0 { fill: #000000 } 
	</style>
	<g id="homepage">
		<g id="piktogramy">
			<path id="ic_zkusenosti" class="shp0" d="M20.23 44.91C19.59 44.91 19.07 45.44 19.07 46.09C19.07 46.73 19.59 47.26 20.23 47.26C20.87 47.26 21.39 46.73 21.39 46.09C21.39 45.44 20.87 44.91 20.23 44.91ZM17.91 16.79C17.27 16.79 16.75 17.31 16.75 17.96C16.75 18.61 17.27 19.13 17.91 19.13C18.55 19.13 19.07 18.61 19.07 17.96C19.07 17.31 18.55 16.79 17.91 16.79ZM49.17 33.93C45.81 25.47 44.87 23.08 44.59 22.38C43.81 9.74 34.55 1.12 24.02 0.43C11.01 -0.42 0.5 10.01 0.5 22.65C0.5 29.88 3.96 36.62 9.78 40.8C9.79 47.47 9.79 59.21 9.79 59.21C9.79 59.86 10.31 60.38 10.95 60.38L31.84 60.38C32.48 60.38 33 59.86 33 59.21L33 50.15L38.09 51.35C38.1 51.36 38.11 51.36 38.12 51.36C39.15 51.57 40.2 51.3 41.01 50.63C41.82 49.96 42.29 48.97 42.29 47.91L42.29 44.02L44.49 39.58C44.65 39.25 44.65 38.86 44.49 38.53L43 35.54L48.09 35.54C48.48 35.54 48.84 35.35 49.05 35.02C49.27 34.7 49.31 34.29 49.17 33.93ZM41.13 33.2L41.13 33.2C40.72 33.2 40.35 33.41 40.14 33.75C39.93 34.1 39.91 34.53 40.09 34.89L42.15 39.06L40.09 43.22C40.01 43.38 39.97 43.56 39.97 43.74L39.97 47.91C39.97 48.27 39.81 48.6 39.54 48.82C39.27 49.04 38.93 49.13 38.59 49.07C38.58 49.06 25.07 45.87 25.05 45.87C24.43 45.72 23.8 46.11 23.66 46.74C23.51 47.37 23.9 48 24.52 48.15L30.68 49.6L30.68 58.04L12.11 58.04C12.11 54.78 12.11 45.5 12.1 40.18C12.1 39.79 11.91 39.42 11.59 39.21C6.1 35.5 2.82 29.31 2.82 22.65C2.82 11.17 12.39 2.02 23.87 2.77C33.94 3.43 41.68 11.81 42.28 22.7C42.29 22.83 42.32 22.96 42.37 23.08C42.45 23.29 44.75 29.1 46.38 33.2L41.13 33.2L41.13 33.2ZM20.06 7.71C16.33 8.58 13.34 11.57 12.43 15.33C11.66 18.51 12.32 21.78 14.25 24.32C15.86 26.44 16.75 29.17 16.75 32.02C16.75 35.26 19.35 37.88 22.55 37.88C25.75 37.88 28.36 35.25 28.36 32.02C28.36 30.63 28.6 29.23 29.06 27.87C29.52 26.55 30.18 25.27 31.03 24.08C32.32 22.29 33 20.17 33 17.96C33 11.23 26.82 6.12 20.06 7.71ZM22.55 35.54C21.01 35.54 19.74 34.52 19.27 33.18L25.84 33.18C25.36 34.55 24.07 35.54 22.55 35.54ZM29.15 22.71C28.16 24.08 27.4 25.56 26.87 27.1C26.45 28.33 26.18 29.59 26.08 30.85L19.03 30.85C18.81 27.91 17.79 25.12 16.09 22.89C14.57 20.89 14.07 18.41 14.68 15.89C15.38 12.98 17.7 10.67 20.59 9.99C25.87 8.75 30.68 12.71 30.68 17.96C30.68 19.68 30.15 21.32 29.15 22.71ZM22.55 12.1C21.53 12.1 20.53 12.37 19.65 12.89C19.09 13.21 18.91 13.93 19.23 14.49C19.55 15.05 20.26 15.24 20.81 14.92C21.34 14.61 21.94 14.45 22.55 14.45C24.47 14.45 26.04 16.02 26.04 17.96C26.04 18.61 26.56 19.13 27.2 19.13C27.84 19.13 28.36 18.61 28.36 17.96C28.36 14.73 25.75 12.1 22.55 12.1Z" />
		</g>
	</g>
</svg>