<svg xmlns="http://www.w3.org/2000/svg" viewBox="0 0 61 61" width="61" height="61">
	<style>
		tspan { white-space:pre }
		.shp0 { fill: #000000 } 
	</style>
	<g id="homepage">
		<g id="piktogramy">
			<path id="ic_systemy" class="shp0" d="M59.57 29.58L45.41 29.58L45.41 27.58L49.23 27.58C49.72 27.58 50.11 27.19 50.11 26.7C50.11 26.22 49.72 25.82 49.23 25.82L45.41 25.82L45.41 23.82L48.07 23.82C49.05 23.82 49.98 23.44 50.68 22.74L56.46 16.96C56.84 17.15 57.25 17.25 57.69 17.25C58.42 17.25 59.12 16.96 59.64 16.44C60.16 15.92 60.45 15.23 60.45 14.49C60.45 13.75 60.16 13.06 59.64 12.54C59.12 12.02 58.42 11.73 57.69 11.73C56.95 11.73 56.26 12.02 55.74 12.54C55.22 13.06 54.93 13.75 54.93 14.49C54.93 14.92 55.03 15.34 55.22 15.72L49.44 21.5C49.07 21.87 48.58 22.07 48.07 22.07L45.41 22.07L45.41 20.13C45.41 17.57 43.33 15.49 40.78 15.49L38.84 15.49L38.84 7.71C39.93 7.34 40.72 6.31 40.72 5.1C40.72 3.58 39.48 2.34 37.96 2.34C36.44 2.34 35.2 3.58 35.2 5.1C35.2 6.31 35.99 7.34 37.08 7.71L37.08 15.49L35.08 15.49L35.08 11.67C35.08 11.19 34.69 10.79 34.2 10.79C33.72 10.79 33.32 11.19 33.32 11.67L33.32 15.49L31.32 15.49L31.32 1.34C31.32 0.85 30.93 0.46 30.45 0.46C29.96 0.46 29.57 0.85 29.57 1.34L29.57 15.49L27.57 15.49L27.57 11.67C27.57 11.19 27.17 10.79 26.69 10.79C26.2 10.79 25.81 11.19 25.81 11.67L25.81 15.49L23.81 15.49L23.81 12.84C23.81 11.85 23.42 10.92 22.73 10.23L16.94 4.44C17.45 3.41 17.28 2.13 16.43 1.27C15.35 0.19 13.6 0.19 12.53 1.27C11.45 2.34 11.45 4.09 12.53 5.17C13.06 5.71 13.77 5.97 14.48 5.97C14.9 5.97 15.32 5.88 15.7 5.69L21.48 11.47C21.85 11.84 22.05 12.32 22.05 12.84L22.05 15.49L20.11 15.49C19.72 15.49 19.33 15.54 18.95 15.64C18.48 15.76 18.2 16.24 18.32 16.71C18.44 17.18 18.92 17.46 19.39 17.34C19.63 17.28 19.87 17.25 20.11 17.25L40.78 17.25C42.37 17.25 43.66 18.54 43.66 20.13L43.66 40.79C43.66 41.04 43.63 41.28 43.57 41.51C43.45 41.98 43.73 42.46 44.2 42.58C44.27 42.6 44.35 42.61 44.42 42.61C44.81 42.61 45.17 42.35 45.27 41.95C45.37 41.58 45.41 41.19 45.41 40.79L45.41 38.85L53.2 38.85C53.56 39.95 54.6 40.73 55.81 40.73C57.33 40.73 58.57 39.5 58.57 37.98C58.57 36.46 57.33 35.22 55.81 35.22C54.6 35.22 53.56 36.01 53.2 37.1L45.41 37.1L45.41 35.1L49.23 35.1C49.72 35.1 50.11 34.7 50.11 34.22C50.11 33.73 49.72 33.34 49.23 33.34L45.41 33.34L45.41 31.34L59.57 31.34C60.05 31.34 60.45 30.95 60.45 30.46C60.45 29.98 60.05 29.58 59.57 29.58ZM56.98 13.78C57.17 13.6 57.42 13.49 57.69 13.49C57.95 13.49 58.21 13.6 58.39 13.78C58.58 13.97 58.69 14.22 58.69 14.49C58.69 14.76 58.58 15.01 58.39 15.2C58.21 15.39 57.95 15.49 57.69 15.49C57.42 15.49 57.17 15.39 56.98 15.2C56.79 15.01 56.69 14.76 56.69 14.49C56.69 14.22 56.79 13.97 56.98 13.78ZM15.18 3.93C14.79 4.32 14.16 4.32 13.77 3.93C13.38 3.54 13.38 2.9 13.77 2.51C13.96 2.32 14.22 2.22 14.48 2.22C14.73 2.22 14.99 2.32 15.18 2.51C15.57 2.9 15.57 3.54 15.18 3.93ZM37.96 6.1C37.41 6.1 36.96 5.65 36.96 5.1C36.96 4.55 37.41 4.1 37.96 4.1C38.51 4.1 38.96 4.55 38.96 5.1C38.96 5.65 38.51 6.1 37.96 6.1ZM55.81 36.98C56.36 36.98 56.81 37.42 56.81 37.98C56.81 38.53 56.36 38.98 55.81 38.98C55.26 38.98 54.81 38.53 54.81 37.98C54.81 37.42 55.26 36.98 55.81 36.98ZM48.36 55.75C47.51 54.9 46.22 54.72 45.19 55.24L39.41 49.45C39.04 49.09 38.84 48.6 38.84 48.08L38.84 45.43L40.78 45.43C41.17 45.43 41.56 45.38 41.94 45.28C42.41 45.16 42.69 44.68 42.57 44.21C42.45 43.74 41.97 43.46 41.5 43.58C41.27 43.64 41.02 43.67 40.78 43.67L20.11 43.67C18.52 43.67 17.23 42.38 17.23 40.79L17.23 20.13C17.23 19.88 17.26 19.64 17.32 19.41C17.45 18.94 17.16 18.46 16.69 18.34C16.22 18.22 15.74 18.5 15.62 18.97C15.52 19.35 15.48 19.74 15.48 20.13L15.48 22.07L7.69 22.07C7.33 20.98 6.3 20.19 5.08 20.19C3.56 20.19 2.32 21.43 2.32 22.95C2.32 24.47 3.56 25.7 5.08 25.7C6.3 25.7 7.33 24.92 7.69 23.82L15.48 23.82L15.48 25.82L11.66 25.82C11.17 25.82 10.78 26.22 10.78 26.7C10.78 27.19 11.17 27.58 11.66 27.58L15.48 27.58L15.48 29.58L1.32 29.58C0.84 29.58 0.45 29.98 0.45 30.46C0.45 30.95 0.84 31.34 1.32 31.34L15.48 31.34L15.48 33.34L11.66 33.34C11.17 33.34 10.78 33.73 10.78 34.22C10.78 34.7 11.17 35.1 11.66 35.1L15.48 35.1L15.48 37.1L12.82 37.1C11.84 37.1 10.91 37.48 10.21 38.18L4.43 43.96C4.05 43.77 3.64 43.67 3.2 43.67C2.47 43.67 1.77 43.96 1.25 44.48C0.73 45 0.45 45.69 0.45 46.43C0.45 47.17 0.73 47.86 1.25 48.38C1.77 48.9 2.47 49.19 3.2 49.19C3.94 49.19 4.63 48.9 5.15 48.38C5.67 47.86 5.96 47.17 5.96 46.43C5.96 46 5.86 45.58 5.67 45.2L11.45 39.42C11.82 39.06 12.31 38.85 12.83 38.85L15.48 38.85L15.48 40.79C15.48 43.35 17.56 45.43 20.11 45.43L22.05 45.43L22.05 53.21C20.96 53.58 20.17 54.61 20.17 55.82C20.17 57.35 21.41 58.58 22.93 58.58C24.45 58.58 25.69 57.34 25.69 55.82C25.69 54.61 24.9 53.58 23.81 53.21L23.81 45.43L25.81 45.43L25.81 49.25C25.81 49.73 26.2 50.13 26.69 50.13C27.17 50.13 27.57 49.73 27.57 49.25L27.57 45.43L29.57 45.43L29.57 59.58C29.57 60.07 29.96 60.46 30.45 60.46C30.93 60.46 31.32 60.07 31.32 59.58L31.32 45.43L33.32 45.43L33.32 49.25C33.32 49.73 33.72 50.13 34.2 50.13C34.69 50.13 35.08 49.73 35.08 49.25L35.08 45.43L37.08 45.43L37.08 48.08C37.08 49.07 37.47 50 38.16 50.7L43.95 56.48C43.44 57.51 43.61 58.8 44.46 59.65C45 60.19 45.71 60.46 46.41 60.46C47.12 60.46 47.83 60.19 48.36 59.65C49.44 58.58 49.44 56.83 48.36 55.75ZM5.08 23.95C4.53 23.95 4.08 23.5 4.08 22.95C4.08 22.39 4.53 21.95 5.08 21.95C5.63 21.95 6.08 22.39 6.08 22.95C6.08 23.5 5.63 23.95 5.08 23.95ZM3.91 47.14C3.72 47.33 3.47 47.43 3.2 47.43C2.94 47.43 2.68 47.33 2.5 47.14C2.31 46.95 2.2 46.7 2.2 46.43C2.2 46.16 2.31 45.91 2.5 45.72C2.68 45.53 2.94 45.43 3.2 45.43C3.47 45.43 3.72 45.53 3.91 45.72C4.1 45.91 4.2 46.16 4.2 46.43C4.2 46.7 4.1 46.95 3.91 47.14ZM23.93 55.82C23.93 56.38 23.48 56.82 22.93 56.82C22.38 56.82 21.93 56.38 21.93 55.82C21.93 55.27 22.38 54.82 22.93 54.82C23.48 54.82 23.93 55.27 23.93 55.82ZM47.12 58.41C46.73 58.8 46.1 58.8 45.71 58.41C45.32 58.02 45.32 57.39 45.71 57C45.9 56.8 46.16 56.7 46.41 56.7C46.67 56.7 46.93 56.8 47.12 57C47.51 57.39 47.51 58.02 47.12 58.41ZM39.78 28.11C39.78 26.23 38.4 24.64 36.52 24.12C36.58 23.89 36.61 23.66 36.61 23.42C36.61 21.64 35.03 20.19 33.09 20.19C32.04 20.19 31.09 20.61 30.45 21.29C29.8 20.61 28.85 20.19 27.8 20.19C25.86 20.19 24.28 21.64 24.28 23.42C24.28 23.66 24.31 23.89 24.37 24.12C22.49 24.64 21.11 26.23 21.11 28.11C21.11 29.03 21.44 29.9 22.04 30.61C21.45 31.37 21.11 32.3 21.11 33.28C21.11 34.77 21.91 36.17 23.23 37.03C23.23 37.04 23.23 37.04 23.23 37.04C23.23 39.08 25.04 40.73 27.27 40.73C28.56 40.73 29.7 40.19 30.45 39.33C31.19 40.19 32.33 40.73 33.62 40.73C35.76 40.73 37.53 39.2 37.66 37.26C38.96 36.51 39.78 35.18 39.78 33.75C39.78 32.7 39.33 31.69 38.56 30.93C39.33 30.17 39.78 29.17 39.78 28.11ZM36.67 31.71C37.51 32.15 38.02 32.92 38.02 33.75C38.02 34.37 37.73 34.96 37.25 35.4C36.78 34.55 35.97 33.86 34.94 33.54C34.47 33.39 33.98 33.65 33.83 34.12C33.69 34.58 33.95 35.07 34.41 35.22C35.3 35.5 35.91 36.23 35.91 37.04C35.91 38.11 34.88 38.98 33.62 38.98C32.35 38.98 31.32 38.11 31.32 37.04L31.32 31.4C31.32 30.33 32.35 29.46 33.62 29.46C34.1 29.46 34.49 29.07 34.49 28.58C34.49 28.1 34.1 27.7 33.62 27.7C32.77 27.7 31.98 27.94 31.32 28.35L31.32 27.23C31.32 26.75 30.93 26.35 30.44 26.35C29.96 26.35 29.57 26.75 29.57 27.23L29.57 32.11C29.27 31.93 28.95 31.77 28.59 31.66C28.13 31.52 27.64 31.77 27.49 32.24C27.35 32.7 27.6 33.19 28.07 33.34C28.96 33.62 29.57 34.35 29.57 35.16L29.57 37.04C29.57 38.11 28.54 38.98 27.27 38.98C26.01 38.98 24.98 38.11 24.98 37.04C24.98 36.58 25.18 36.13 25.53 35.78C25.87 35.44 25.88 34.88 25.53 34.54C25.19 34.19 24.64 34.19 24.29 34.54C24.08 34.74 23.9 34.97 23.75 35.22C23.19 34.69 22.87 34 22.87 33.28C22.87 31.98 23.89 30.83 25.35 30.5C25.83 30.39 26.12 29.92 26.01 29.44C25.91 28.97 25.43 28.68 24.96 28.78C24.37 28.92 23.83 29.14 23.35 29.44C23.04 29.05 22.87 28.59 22.87 28.11C22.87 26.79 24.12 25.71 25.67 25.7C25.68 25.7 25.68 25.71 25.69 25.71C25.89 25.71 26.09 25.64 26.26 25.5C26.6 25.21 26.66 24.73 26.44 24.36C26.43 24.35 26.42 24.34 26.42 24.33C26.41 24.33 26.41 24.32 26.41 24.32C26.39 24.3 26.38 24.28 26.36 24.26C26.36 24.26 26.36 24.26 26.36 24.26C26.21 24.09 26.04 23.8 26.04 23.42C26.04 22.61 26.83 21.95 27.8 21.95C28.78 21.95 29.57 22.61 29.57 23.42C29.57 23.9 29.96 24.29 30.45 24.29C30.93 24.29 31.32 23.9 31.32 23.42C31.32 22.61 32.11 21.95 33.09 21.95C34.06 21.95 34.85 22.61 34.85 23.42C34.85 23.63 34.79 23.82 34.72 23.97C34.22 24.02 33.73 24.14 33.28 24.33C32.83 24.52 32.62 25.03 32.81 25.48C33 25.93 33.51 26.14 33.96 25.95C34.34 25.79 34.75 25.71 35.17 25.7C35.18 25.7 35.19 25.71 35.2 25.71C35.21 25.71 35.21 25.7 35.22 25.7C36.77 25.71 38.02 26.79 38.02 28.11C38.02 28.94 37.51 29.71 36.67 30.15C36.38 30.31 36.2 30.6 36.2 30.93C36.2 31.26 36.38 31.56 36.67 31.71Z" />
		</g>
	</g>
</svg>